<mxfile host="app.diagrams.net" modified="2024-03-26T15:48:25.143Z" agent="Mozilla/5.0 (X11; Linux x86_64) AppleWebKit/537.36 (KHTML, like Gecko) Chrome/120.0.0.0 Safari/537.36" etag="_lJyhS9d-JMwwxWLQkZc" version="24.1.0" type="device">
  <diagram name="Page-1" id="fqjJIMyGEyLriEQkknpv">
    <mxGraphModel dx="989" dy="494" grid="1" gridSize="10" guides="1" tooltips="1" connect="1" arrows="1" fold="1" page="1" pageScale="1" pageWidth="850" pageHeight="1100" math="0" shadow="0">
      <root>
        <mxCell id="0" />
        <mxCell id="1" parent="0" />
        <mxCell id="u_xR3J-K0KoO75LIoVnP-2" value="my-service:8888" style="sketch=0;pointerEvents=1;shadow=0;dashed=0;html=1;strokeColor=none;labelPosition=center;verticalLabelPosition=bottom;verticalAlign=top;outlineConnect=0;align=center;shape=mxgraph.office.servers.physical_host;fillColor=#2072B8;" parent="1" vertex="1">
          <mxGeometry x="130" y="68" width="27" height="52" as="geometry" />
        </mxCell>
        <mxCell id="u_xR3J-K0KoO75LIoVnP-14" value="Podman host" style="points=[[0,0],[0.25,0],[0.5,0],[0.75,0],[1,0],[1,0.25],[1,0.5],[1,0.75],[1,1],[0.75,1],[0.5,1],[0.25,1],[0,1],[0,0.75],[0,0.5],[0,0.25]];outlineConnect=0;gradientColor=none;html=1;whiteSpace=wrap;fontSize=12;fontStyle=0;container=1;pointerEvents=0;collapsible=0;recursiveResize=0;shape=mxgraph.aws4.group;grIcon=mxgraph.aws4.group_on_premise;strokeColor=#7D8998;fillColor=none;verticalAlign=top;align=left;spacingLeft=30;fontColor=#5A6C86;dashed=0;" parent="1" vertex="1">
          <mxGeometry x="305" y="50" width="535" height="270" as="geometry" />
        </mxCell>
        <mxCell id="_p0oJx6fUSaqq7kiMBFW-30" style="edgeStyle=orthogonalEdgeStyle;rounded=0;orthogonalLoop=1;jettySize=auto;html=1;" edge="1" parent="u_xR3J-K0KoO75LIoVnP-14" source="_p0oJx6fUSaqq7kiMBFW-15">
          <mxGeometry relative="1" as="geometry">
            <mxPoint x="168" y="175" as="targetPoint" />
            <Array as="points">
              <mxPoint x="235" y="80" />
              <mxPoint x="235" y="175" />
            </Array>
          </mxGeometry>
        </mxCell>
        <mxCell id="_p0oJx6fUSaqq7kiMBFW-15" value="my-service:8080&amp;nbsp; &amp;nbsp;&amp;nbsp;" style="rounded=1;whiteSpace=wrap;html=1;align=right;" vertex="1" parent="u_xR3J-K0KoO75LIoVnP-14">
          <mxGeometry x="312.5" y="50" width="165" height="60" as="geometry" />
        </mxCell>
        <mxCell id="_p0oJx6fUSaqq7kiMBFW-16" value="" style="shape=image;verticalLabelPosition=bottom;labelBackgroundColor=default;verticalAlign=top;aspect=fixed;imageAspect=0;image=https://www.justinleegrant.com/assets/img/2021/podman.png;" vertex="1" parent="u_xR3J-K0KoO75LIoVnP-14">
          <mxGeometry x="319.5" y="56.94" width="46.3235294117647" height="46.11764705882353" as="geometry" />
        </mxCell>
        <object placeholders="1" c4Name="sample_sample1" c4Type="ContainerScopeBoundary" c4Application="Bridge Network" label="&lt;font style=&quot;font-size: 16px&quot;&gt;&lt;b&gt;&lt;div style=&quot;text-align: left&quot;&gt;%c4Name%&lt;/div&gt;&lt;/b&gt;&lt;/font&gt;&lt;div style=&quot;text-align: left&quot;&gt;[%c4Application%]&lt;/div&gt;" id="_p0oJx6fUSaqq7kiMBFW-17">
          <mxCell style="rounded=1;fontSize=11;whiteSpace=wrap;html=1;dashed=1;arcSize=20;fillColor=none;strokeColor=#666666;fontColor=#333333;labelBackgroundColor=none;align=left;verticalAlign=bottom;labelBorderColor=none;spacingTop=0;spacing=10;dashPattern=8 4;metaEdit=1;rotatable=0;perimeter=rectanglePerimeter;noLabel=0;labelPadding=0;allowArrows=0;connectable=0;expand=0;recursiveResize=0;editable=1;pointerEvents=0;absoluteArcSize=1;points=[[0.25,0,0],[0.5,0,0],[0.75,0,0],[1,0.25,0],[1,0.5,0],[1,0.75,0],[0.75,1,0],[0.5,1,0],[0.25,1,0],[0,0.75,0],[0,0.5,0],[0,0.25,0]];" vertex="1" parent="u_xR3J-K0KoO75LIoVnP-14">
            <mxGeometry x="275" y="30" width="240" height="220" as="geometry" />
          </mxCell>
        </object>
        <mxCell id="_p0oJx6fUSaqq7kiMBFW-31" style="edgeStyle=orthogonalEdgeStyle;rounded=0;orthogonalLoop=1;jettySize=auto;html=1;" edge="1" parent="u_xR3J-K0KoO75LIoVnP-14" source="_p0oJx6fUSaqq7kiMBFW-20">
          <mxGeometry relative="1" as="geometry">
            <mxPoint x="168" y="216" as="targetPoint" />
            <Array as="points">
              <mxPoint x="245" y="150" />
              <mxPoint x="245" y="216" />
            </Array>
          </mxGeometry>
        </mxCell>
        <mxCell id="_p0oJx6fUSaqq7kiMBFW-20" value="my-tcp-service:5201&amp;nbsp;" style="rounded=1;whiteSpace=wrap;html=1;align=right;" vertex="1" parent="u_xR3J-K0KoO75LIoVnP-14">
          <mxGeometry x="312.5" y="120" width="165" height="60" as="geometry" />
        </mxCell>
        <mxCell id="_p0oJx6fUSaqq7kiMBFW-21" value="" style="shape=image;verticalLabelPosition=bottom;labelBackgroundColor=default;verticalAlign=top;aspect=fixed;imageAspect=0;image=https://www.justinleegrant.com/assets/img/2021/podman.png;" vertex="1" parent="u_xR3J-K0KoO75LIoVnP-14">
          <mxGeometry x="319.5" y="126.94" width="46.3235294117647" height="46.11764705882353" as="geometry" />
        </mxCell>
        <object placeholders="1" c4Name="host" c4Type="ContainerScopeBoundary" c4Application="Host network" label="&lt;font style=&quot;font-size: 16px&quot;&gt;&lt;b&gt;&lt;div style=&quot;text-align: left&quot;&gt;%c4Name%&lt;/div&gt;&lt;/b&gt;&lt;/font&gt;&lt;div style=&quot;text-align: left&quot;&gt;[%c4Application%]&lt;/div&gt;" id="_p0oJx6fUSaqq7kiMBFW-23">
          <mxCell style="rounded=1;fontSize=11;whiteSpace=wrap;html=1;dashed=1;arcSize=20;fillColor=none;strokeColor=#666666;fontColor=#333333;labelBackgroundColor=none;align=left;verticalAlign=bottom;labelBorderColor=none;spacingTop=0;spacing=10;dashPattern=8 4;metaEdit=1;rotatable=0;perimeter=rectanglePerimeter;noLabel=0;labelPadding=0;allowArrows=0;connectable=0;expand=0;recursiveResize=0;editable=1;pointerEvents=0;absoluteArcSize=1;points=[[0.25,0,0],[0.5,0,0],[0.75,0,0],[1,0.25,0],[1,0.5,0],[1,0.75,0],[0.75,1,0],[0.5,1,0],[0.25,1,0],[0,0.75,0],[0,0.5,0],[0,0.25,0]];" vertex="1" parent="u_xR3J-K0KoO75LIoVnP-14">
            <mxGeometry x="15" y="30" width="240" height="220" as="geometry" />
          </mxCell>
        </object>
        <mxCell id="u_xR3J-K0KoO75LIoVnP-15" value="" style="group" parent="u_xR3J-K0KoO75LIoVnP-14" vertex="1" connectable="0">
          <mxGeometry x="45" y="70" width="180" height="70" as="geometry" />
        </mxCell>
        <mxCell id="u_xR3J-K0KoO75LIoVnP-3" value="&lt;blockquote style=&quot;margin: 0 0 0 40px; border: none; padding: 0px;&quot;&gt;skupper-router&amp;nbsp; &amp;nbsp;&lt;br&gt;&lt;br&gt;&lt;/blockquote&gt;" style="rounded=1;whiteSpace=wrap;html=1;align=right;" parent="u_xR3J-K0KoO75LIoVnP-15" vertex="1">
          <mxGeometry width="180" height="70" as="geometry" />
        </mxCell>
        <mxCell id="u_xR3J-K0KoO75LIoVnP-9" value="" style="shape=image;verticalLabelPosition=bottom;labelBackgroundColor=default;verticalAlign=top;aspect=fixed;imageAspect=0;image=https://www.justinleegrant.com/assets/img/2021/podman.png;" parent="u_xR3J-K0KoO75LIoVnP-15" vertex="1">
          <mxGeometry x="20" y="7" width="46.3235294117647" height="46.11764705882353" as="geometry" />
        </mxCell>
        <mxCell id="_p0oJx6fUSaqq7kiMBFW-27" value="8080" style="fontStyle=0;labelPosition=right;verticalLabelPosition=middle;align=left;verticalAlign=middle;spacingLeft=2;" vertex="1" parent="u_xR3J-K0KoO75LIoVnP-14">
          <mxGeometry x="105" y="160" width="30" height="30" as="geometry" />
        </mxCell>
        <mxCell id="_p0oJx6fUSaqq7kiMBFW-28" value="5201" style="fontStyle=0;labelPosition=right;verticalLabelPosition=middle;align=left;verticalAlign=middle;spacingLeft=2;" vertex="1" parent="u_xR3J-K0KoO75LIoVnP-14">
          <mxGeometry x="105" y="200" width="30" height="30" as="geometry" />
        </mxCell>
        <mxCell id="_p0oJx6fUSaqq7kiMBFW-32" style="edgeStyle=orthogonalEdgeStyle;rounded=0;orthogonalLoop=1;jettySize=auto;html=1;entryX=0.14;entryY=1.001;entryDx=0;entryDy=0;entryPerimeter=0;" edge="1" parent="u_xR3J-K0KoO75LIoVnP-14" source="_p0oJx6fUSaqq7kiMBFW-28" target="u_xR3J-K0KoO75LIoVnP-3">
          <mxGeometry relative="1" as="geometry">
            <mxPoint x="70" y="140" as="targetPoint" />
            <Array as="points">
              <mxPoint x="70" y="215" />
              <mxPoint x="70" y="140" />
            </Array>
          </mxGeometry>
        </mxCell>
        <mxCell id="_p0oJx6fUSaqq7kiMBFW-34" style="edgeStyle=orthogonalEdgeStyle;rounded=0;orthogonalLoop=1;jettySize=auto;html=1;entryX=0.139;entryY=1.004;entryDx=0;entryDy=0;entryPerimeter=0;" edge="1" parent="u_xR3J-K0KoO75LIoVnP-14" source="_p0oJx6fUSaqq7kiMBFW-27" target="u_xR3J-K0KoO75LIoVnP-3">
          <mxGeometry relative="1" as="geometry">
            <Array as="points">
              <mxPoint x="70" y="175" />
            </Array>
          </mxGeometry>
        </mxCell>
        <mxCell id="_p0oJx6fUSaqq7kiMBFW-3" value="my-tcp-service:4201" style="sketch=0;pointerEvents=1;shadow=0;dashed=0;html=1;strokeColor=none;labelPosition=center;verticalLabelPosition=bottom;verticalAlign=top;outlineConnect=0;align=center;shape=mxgraph.office.servers.physical_host;fillColor=#2072B8;" vertex="1" parent="1">
          <mxGeometry x="130" y="190" width="27" height="52" as="geometry" />
        </mxCell>
        <mxCell id="_p0oJx6fUSaqq7kiMBFW-25" style="edgeStyle=orthogonalEdgeStyle;rounded=0;orthogonalLoop=1;jettySize=auto;html=1;" edge="1" parent="1" source="u_xR3J-K0KoO75LIoVnP-3" target="u_xR3J-K0KoO75LIoVnP-2">
          <mxGeometry relative="1" as="geometry">
            <Array as="points">
              <mxPoint x="240" y="155" />
              <mxPoint x="240" y="100" />
            </Array>
          </mxGeometry>
        </mxCell>
        <mxCell id="_p0oJx6fUSaqq7kiMBFW-26" style="edgeStyle=orthogonalEdgeStyle;rounded=0;orthogonalLoop=1;jettySize=auto;html=1;" edge="1" parent="1" source="u_xR3J-K0KoO75LIoVnP-3" target="_p0oJx6fUSaqq7kiMBFW-3">
          <mxGeometry relative="1" as="geometry">
            <Array as="points">
              <mxPoint x="240" y="155" />
              <mxPoint x="240" y="220" />
            </Array>
          </mxGeometry>
        </mxCell>
      </root>
    </mxGraphModel>
  </diagram>
</mxfile>
